<svg width="22" height="22" viewBox="0 0 22 22" fill="none" xmlns="http://www.w3.org/2000/svg">
<path d="M11.0001 0.115234C17.0121 0.115234 21.8855 4.98863 21.8855 11.0006C21.8855 17.0127 17.0121 21.8861 11.0001 21.8861C4.98809 21.8861 0.114685 17.0127 0.114685 11.0006C0.114685 4.98863 4.98809 0.115234 11.0001 0.115234ZM11.0001 1.74805C8.54616 1.74805 6.19272 2.72287 4.45752 4.45807C2.72232 6.19327 1.7475 8.54671 1.7475 11.0006C1.7475 13.4546 2.72232 15.808 4.45752 17.5432C6.19272 19.2784 8.54616 20.2533 11.0001 20.2533C13.454 20.2533 15.8075 19.2784 17.5427 17.5432C19.2779 15.808 20.2527 13.4546 20.2527 11.0006C20.2527 8.54671 19.2779 6.19327 17.5427 4.45807C15.8075 2.72287 13.454 1.74805 11.0001 1.74805ZM11.0001 5.55794C11.2166 5.55794 11.4243 5.64396 11.5774 5.79706C11.7305 5.95017 11.8165 6.15782 11.8165 6.37435V10.1842H15.6264C15.8429 10.1842 16.0506 10.2703 16.2037 10.4234C16.3568 10.5765 16.4428 10.7841 16.4428 11.0006C16.4428 11.2172 16.3568 11.4248 16.2037 11.5779C16.0506 11.731 15.8429 11.8171 15.6264 11.8171H11.8165V15.6269C11.8165 15.8435 11.7305 16.0511 11.5774 16.2042C11.4243 16.3573 11.2166 16.4434 11.0001 16.4434C10.7836 16.4434 10.5759 16.3573 10.4228 16.2042C10.2697 16.0511 10.1837 15.8435 10.1837 15.6269V11.8171H6.3738C6.15727 11.8171 5.94962 11.731 5.79651 11.5779C5.64341 11.4248 5.55739 11.2172 5.55739 11.0006C5.55739 10.7841 5.64341 10.5765 5.79651 10.4234C5.94962 10.2703 6.15727 10.1842 6.3738 10.1842H10.1837V6.37435C10.1837 6.15782 10.2697 5.95017 10.4228 5.79706C10.5759 5.64396 10.7836 5.55794 11.0001 5.55794Z" fill="#C0C0C0"/>
</svg>
