<svg width="19" height="11" viewBox="0 0 19 11" fill="none" xmlns="http://www.w3.org/2000/svg">
<path d="M18.12 0.487407C17.9658 0.332901 17.7827 0.210322 17.5811 0.126686C17.3794 0.0430503 17.1633 -6.32208e-08 16.945 -7.27621e-08C16.7267 -8.23035e-08 16.5106 0.0430502 16.309 0.126686C16.1074 0.210322 15.9242 0.332901 15.77 0.487407L9.30335 6.95407L2.83668 0.487406C2.52505 0.175777 2.10239 0.000704997 1.66168 0.000704978C1.22097 0.000704959 0.798311 0.175777 0.486681 0.487406C0.175053 0.799036 -1.72195e-05 1.2217 -1.72388e-05 1.66241C-1.72581e-05 2.10312 0.175053 2.52578 0.486681 2.83741L8.13668 10.4874C8.29087 10.6419 8.47402 10.7645 8.67564 10.8481C8.87726 10.9318 9.0934 10.9748 9.31168 10.9748C9.52996 10.9748 9.7461 10.9318 9.94772 10.8481C10.1493 10.7645 10.3325 10.6419 10.4867 10.4874L18.1367 2.83741C18.77 2.20407 18.77 1.13741 18.12 0.487407Z" fill="#D9D9D9"/>
</svg>
