<svg width="17" height="17" viewBox="0 0 17 17" fill="none" xmlns="http://www.w3.org/2000/svg">
	<path d="M16.7535 7.91352L14.2035 5.36352C14.0435 5.20346 13.8264 5.11354 13.6 5.11354C13.3737 5.11354 13.1566 5.20346 12.9965 5.36352C12.8365 5.52357 12.7465 5.74066 12.7465 5.96702C12.7465 6.19337 12.8365 6.41046 12.9965 6.57052L14.093 7.65002H9.35002V2.89851L10.4465 4.00352C10.5259 4.08229 10.6201 4.14462 10.7237 4.18692C10.8273 4.22922 10.9382 4.25066 11.05 4.25002C11.1619 4.25066 11.2728 4.22922 11.3763 4.18692C11.4799 4.14462 11.5741 4.08229 11.6535 4.00352C11.7332 3.9245 11.7964 3.83049 11.8396 3.72691C11.8827 3.62333 11.9049 3.51223 11.9049 3.40002C11.9049 3.28781 11.8827 3.17671 11.8396 3.07312C11.7964 2.96954 11.7332 2.87553 11.6535 2.79651L9.10352 0.246514C9.02409 0.167735 8.9299 0.105409 8.82634 0.0631087C8.72278 0.0208088 8.61188 -0.000632552 8.50002 1.42072e-05C8.27703 0.000953136 8.06334 0.0894817 7.90502 0.246514L5.35502 2.79651C5.27576 2.87521 5.21279 2.96874 5.16968 3.07178C5.12658 3.17481 5.10419 3.28532 5.10379 3.39701C5.1034 3.5087 5.12501 3.61937 5.16738 3.7227C5.20976 3.82604 5.27207 3.92001 5.35077 3.99927C5.42946 4.07852 5.52299 4.14149 5.62603 4.1846C5.72906 4.2277 5.83958 4.25009 5.95126 4.25049C6.17682 4.25129 6.39346 4.16245 6.55352 4.00352L7.65002 2.90702V7.65002H2.89851L4.00352 6.55352C4.16357 6.39346 4.25349 6.17637 4.25349 5.95002C4.25349 5.72366 4.16357 5.50657 4.00352 5.34652C3.84346 5.18646 3.62637 5.09654 3.40002 5.09654C3.17366 5.09654 2.95657 5.18646 2.79651 5.34652L0.246514 7.89652C0.167735 7.97594 0.105409 8.07014 0.0631087 8.1737C0.0208088 8.27726 -0.000632552 8.38815 1.42072e-05 8.50002C-0.000632552 8.61188 0.0208088 8.72278 0.0631087 8.82634C0.105409 8.9299 0.167735 9.02409 0.246514 9.10352L2.79651 11.6535C2.87594 11.7323 2.97013 11.7946 3.07369 11.8369C3.17726 11.8792 3.28815 11.9007 3.40002 11.9C3.51188 11.9007 3.62277 11.8792 3.72634 11.8369C3.8299 11.7946 3.92409 11.7323 4.00352 11.6535C4.08318 11.5745 4.14642 11.4805 4.18957 11.3769C4.23273 11.2733 4.25494 11.1622 4.25494 11.05C4.25494 10.9378 4.23273 10.8267 4.18957 10.7231C4.14642 10.6195 4.08318 10.5255 4.00352 10.4465L2.90702 9.35002H7.65002V14.1015L6.55352 12.9965C6.47426 12.9173 6.38018 12.8544 6.27663 12.8115C6.17308 12.7686 6.0621 12.7465 5.95002 12.7465C5.83794 12.7465 5.72695 12.7686 5.6234 12.8115C5.51986 12.8544 5.42577 12.9173 5.34652 12.9965C5.26726 13.0758 5.2044 13.1699 5.1615 13.2734C5.11861 13.377 5.09654 13.4879 5.09654 13.6C5.09654 13.7121 5.11861 13.8231 5.1615 13.9266C5.2044 14.0302 5.26726 14.1243 5.34652 14.2035L7.89652 16.7535C7.97594 16.8323 8.07014 16.8946 8.1737 16.9369C8.27726 16.9792 8.38815 17.0007 8.50002 17C8.72301 16.9991 8.9367 16.9106 9.09502 16.7535L11.645 14.2035C11.8051 14.0435 11.895 13.8264 11.895 13.6C11.895 13.3737 11.8051 13.1566 11.645 12.9965C11.485 12.8365 11.2679 12.7465 11.0415 12.7465C10.8152 12.7465 10.5981 12.8365 10.438 12.9965L9.35002 14.093V9.35002H14.1015L12.9965 10.4465C12.9169 10.5255 12.8536 10.6195 12.8105 10.7231C12.7673 10.8267 12.7451 10.9378 12.7451 11.05C12.7451 11.1622 12.7673 11.2733 12.8105 11.3769C12.8536 11.4805 12.9169 11.5745 12.9965 11.6535C13.0759 11.7323 13.1701 11.7946 13.2737 11.8369C13.3773 11.8792 13.4882 11.9007 13.6 11.9C13.7119 11.9007 13.8228 11.8792 13.9263 11.8369C14.0299 11.7946 14.1241 11.7323 14.2035 11.6535L16.7535 9.10352C16.8323 9.02409 16.8946 8.9299 16.9369 8.82634C16.9792 8.72278 17.0007 8.61188 17 8.50002C16.9969 8.27998 16.9085 8.06974 16.7535 7.91352Z" fill="#BD7BF5"/>
</svg>
