<svg width="27" height="27" viewBox="0 0 27 27" fill="none" xmlns="http://www.w3.org/2000/svg">
<path d="M2.9978 26.9802C2.17341 26.9802 1.46742 26.6869 0.879855 26.1004C0.293285 25.5128 0 24.8068 0 23.9824V5.24615C0 4.87143 0.0624542 4.53418 0.187363 4.2344C0.312271 3.93462 0.474652 3.64733 0.674506 3.37253L2.77297 0.824396C2.97282 0.549597 3.22264 0.343249 3.52242 0.20535C3.8222 0.06845 4.14696 0 4.4967 0H22.4835C22.8333 0 23.158 0.06845 23.4578 0.20535C23.7576 0.343249 24.0074 0.549597 24.2073 0.824396L26.3057 3.37253C26.5056 3.64733 26.668 3.93462 26.7929 4.2344C26.9178 4.53418 26.9802 4.87143 26.9802 5.24615V23.9824C26.9802 24.8068 26.6869 25.5128 26.1004 26.1004C25.5128 26.6869 24.8068 26.9802 23.9824 26.9802H2.9978ZM3.59736 4.4967H23.3829L22.1088 2.9978H4.87143L3.59736 4.4967ZM13.4901 22.4835L19.4857 16.4879L17.3873 14.3895L14.989 16.7877V10.4923H11.9912V16.7877L9.59297 14.3895L7.49451 16.4879L13.4901 22.4835Z" fill="#BD7BF5"/>
</svg>
