<svg width="19" height="19" viewBox="0 0 19 19" fill="none" xmlns="http://www.w3.org/2000/svg">
<path d="M12.5578 4.43156L14.1646 6.04826M13.5911 3.00732L9.24631 7.38087C9.02181 7.60653 8.86871 7.89404 8.80629 8.20716L8.40497 10.2294L10.4139 9.82462C10.7249 9.762 11.0102 9.6085 11.2347 9.38245L15.5795 5.0089C15.7101 4.87747 15.8136 4.72145 15.8843 4.54973C15.9549 4.37802 15.9913 4.19397 15.9913 4.00811C15.9913 3.82224 15.9549 3.6382 15.8843 3.46648C15.8136 3.29477 15.7101 3.13874 15.5795 3.00732C15.4489 2.87589 15.2939 2.77164 15.1233 2.70051C14.9528 2.62938 14.7699 2.59277 14.5853 2.59277C14.4006 2.59277 14.2178 2.62938 14.0472 2.70051C13.8766 2.77164 13.7216 2.87589 13.5911 3.00732V3.00732Z" stroke="#AAAAAA" stroke-width="0.801008" stroke-linecap="round" stroke-linejoin="round"/>
<path d="M14.4741 11.7568V14.0479C14.4741 14.4529 14.3143 14.8414 14.0297 15.1279C13.7452 15.4143 13.3592 15.5752 12.9568 15.5752H4.61171C4.2093 15.5752 3.82337 15.4143 3.53883 15.1279C3.25428 14.8414 3.09442 14.4529 3.09442 14.0479V5.64746C3.09442 5.24239 3.25428 4.8539 3.53883 4.56747C3.82337 4.28103 4.2093 4.12012 4.61171 4.12012H6.88765" stroke="#AAAAAA" stroke-width="0.801008" stroke-linecap="round" stroke-linejoin="round"/>
</svg>
