<svg width="30" height="30" viewBox="0 0 30 30" fill="none" xmlns="http://www.w3.org/2000/svg">
<g clip-path="url(#clip0_1104_2840)">
<path d="M25.6 4.38958C24.2083 2.99488 22.5548 1.88886 20.7344 1.13506C18.9141 0.381257 16.9627 -0.00547264 14.9925 -0.0029171C6.70746 -0.0029171 -0.00878906 6.71333 -0.00878906 14.9983C-0.00878906 19.1408 1.67121 22.8921 4.38621 25.6071C5.77787 27.0018 7.43137 28.1078 9.25174 28.8616C11.0721 29.6154 13.0234 30.0021 14.9937 29.9996C23.2787 29.9996 29.995 23.2833 29.995 14.9983C29.995 10.8558 28.315 7.10458 25.6 4.38958ZM23.6725 23.6733C22.534 24.8147 21.1812 25.7199 19.6918 26.3368C18.2024 26.9538 16.6058 27.2704 14.9937 27.2683C8.21496 27.2683 2.71996 21.7733 2.71996 14.9946C2.71794 13.3825 3.0345 11.7859 3.65145 10.2965C4.26839 8.8071 5.17357 7.4543 6.31496 6.31583C7.45316 5.17442 8.80573 4.26923 10.2949 3.65227C11.7841 3.03532 13.3805 2.71877 14.9925 2.72083C21.77 2.72083 27.265 8.21583 27.265 14.9933C27.2671 16.6053 26.9506 18.2017 26.3336 19.6909C25.7167 21.1801 24.8114 22.5327 23.67 23.6708L23.6725 23.6733Z" fill="#FD96AB"/>
<path d="M16.9212 14.9996L21.7399 10.1809C21.9776 9.92178 22.1061 9.5809 22.0985 9.22937C22.0908 8.87785 21.9477 8.54285 21.699 8.2943C21.4503 8.04576 21.1152 7.90288 20.7637 7.89549C20.4122 7.88809 20.0714 8.01676 19.8124 8.25462L19.8137 8.25337L14.9949 13.0721L10.1762 8.25337C9.9171 8.01567 9.57622 7.88723 9.22469 7.89485C8.87317 7.90247 8.53817 8.04557 8.28963 8.29428C8.04108 8.54298 7.8982 8.87807 7.89081 9.2296C7.88341 9.58114 8.01208 9.92194 8.24994 10.1809L8.2487 10.1796L13.0674 14.9984L8.2487 19.8171C8.11312 19.9415 8.00411 20.092 7.92824 20.2597C7.85236 20.4273 7.81119 20.6085 7.80721 20.7925C7.80322 20.9764 7.83649 21.1593 7.90503 21.33C7.97357 21.5008 8.07595 21.6559 8.20601 21.786C8.33607 21.9162 8.49112 22.0187 8.66182 22.0873C8.83253 22.156 9.01536 22.1893 9.19931 22.1855C9.38326 22.1816 9.56453 22.1406 9.7322 22.0648C9.89987 21.989 10.0505 21.8801 10.1749 21.7446L10.1762 21.7434L14.9949 16.9246L19.8137 21.7434C19.9381 21.879 20.0886 21.988 20.2562 22.0638C20.4239 22.1397 20.6051 22.1809 20.789 22.1849C20.973 22.1889 21.1558 22.1556 21.3266 22.087C21.4973 22.0185 21.6525 21.9161 21.7826 21.7861C21.9128 21.656 22.0152 21.501 22.0839 21.3302C22.1525 21.1595 22.1859 20.9767 22.1821 20.7928C22.1782 20.6088 22.1371 20.4275 22.0614 20.2599C21.9856 20.0922 21.8767 19.9416 21.7412 19.8171L21.7399 19.8159L16.9212 14.9996Z" fill="#FD96AB"/>
</g>
<defs>
<clipPath id="clip0_1104_2840">
<rect width="30" height="30" fill="white"/>
</clipPath>
</defs>
</svg>
