<svg width="41" height="40" viewBox="0 0 41 40" fill="none" xmlns="http://www.w3.org/2000/svg">
	<path d="M30.3737 19.6419V16.4379H27.9866V20.4429C27.9866 20.7682 27.7595 21.014 27.9866 21.2439L31.1694 24.448V26.851H5.70704V24.448L8.88983 21.2439C9.11686 21.014 8.88976 20.7682 8.88983 20.4429V15.6369C8.88646 13.9133 9.63172 12.3241 10.4812 10.8308C11.3307 9.33762 12.1904 7.68662 13.664 6.8258C15.1377 5.96498 16.7372 6.02144 18.4382 6.0248C20.1392 6.02815 21.7421 5.95917 23.2124 6.8258V4.42278C22.0601 3.90582 20.4875 3.75164 19.2339 3.62177V1.21875H17.6425V3.62177C14.6581 3.92955 11.6978 5.37259 9.68553 7.62681C7.67322 9.88103 6.50649 12.5973 6.50274 15.6369V19.6419L3.31995 23.647C3.09292 23.8769 3.32002 24.1227 3.31995 24.448V27.652C3.31995 27.9773 3.09294 28.223 3.31995 28.453C3.54696 28.683 3.7946 29.254 4.11565 29.254H12.8683V30.055C12.8683 31.6815 13.3247 33.711 14.4597 34.8611C15.5948 36.0112 16.833 36.4631 18.4382 36.4631C20.0434 36.4631 21.2816 36.0112 22.4167 34.8611C23.5517 33.711 24.0081 31.6815 24.0081 30.055V29.254H32.7608C33.0818 29.254 33.3294 28.683 33.5565 28.453C33.7835 28.223 33.5565 27.9773 33.5565 27.652V24.448C33.5564 24.1227 33.7835 23.8769 33.5565 23.647L30.3737 19.6419ZM21.621 30.055C21.621 31.0309 21.5063 31.768 20.8253 32.458C20.1443 33.1481 19.4013 34.0601 18.4382 34.0601C17.4751 34.0601 16.7321 33.1481 16.0511 32.458C15.3701 31.768 15.2554 31.0309 15.2554 30.055V29.254H21.621V30.055Z"
		fill="#9123EF" />
	<path d="M32.0554 14.8367C34.765 14.8367 36.8614 12.7403 36.8614 10.0307C36.8614 7.32105 34.765 5.22461 32.0554 5.22461C29.3458 5.22461 27.2493 7.32105 27.2493 10.0307C27.2493 12.7403 29.3458 14.8367 32.0554 14.8367Z"
		fill="#9123EF" />
</svg>