<svg width="10" height="16" viewBox="0 0 10 16" fill="none" xmlns="http://www.w3.org/2000/svg">
<path d="M1.01408 0.699688C1.15675 0.557027 1.34658 0.471327 1.54794 0.458665C1.74931 0.446004 1.94837 0.507251 2.10779 0.630916L2.18568 0.699688L8.81425 7.32826C8.95691 7.47093 9.04261 7.66076 9.05527 7.86212C9.06793 8.06349 9.00669 8.26255 8.88302 8.42197L8.81425 8.49986L2.18568 15.1284C2.03657 15.277 1.83649 15.3633 1.62608 15.3697C1.41566 15.3762 1.21069 15.3022 1.05279 15.163C0.894894 15.0238 0.795911 14.8297 0.775948 14.6201C0.755985 14.4106 0.816538 14.2012 0.945307 14.0347L1.01408 13.9568L7.05685 7.91406L1.01408 1.87129C0.858746 1.71591 0.771484 1.5052 0.771484 1.28549C0.771484 1.06578 0.858746 0.855068 1.01408 0.699688Z" fill="#9123EF"/>
</svg>
