<svg width="36" height="36" viewBox="0 0 36 36" fill="none" xmlns="http://www.w3.org/2000/svg">
<circle cx="18" cy="18" r="18" fill="url(#paint0_linear_436_2414)"/>
<path d="M28.445 16.8709L10.5455 7.62278C10.4711 7.58552 10.6264 7.60305 10.5455 7.62278C10.3596 7.6688 10.4995 7.43429 10.5455 7.62278L12.2777 15.7149C12.3061 15.8311 12.164 15.6776 12.2777 15.7149L15.7421 16.8709L12.2777 18.0269C12.164 18.0664 12.3039 17.9108 12.2777 18.0269L10.5455 25.5411C10.5258 25.6221 10.5083 25.4687 10.5455 25.5411C10.6308 25.7142 10.3705 26.2045 10.5455 26.1191L28.445 17.4489C28.5128 17.4161 28.9874 16.9367 29.0224 16.8709C29.1077 16.6956 28.6178 16.9586 28.445 16.8709ZM12.2777 23.807L13.4325 19.183L19.7839 16.8709C19.8342 16.8534 20.3439 16.9235 20.3613 16.8709C20.392 16.7789 19.8758 16.9038 19.7839 16.8709L13.4325 14.5589L12.2777 9.93481L26.1354 16.8709L12.2777 23.807Z" fill="white"/>
<defs>
<linearGradient id="paint0_linear_436_2414" x1="3.59278" y1="-0.980546" x2="43.6455" y2="57.8853" gradientUnits="userSpaceOnUse">
<stop stop-color="#9123EF"/>
<stop offset="0.630208" stop-color="#BD7BF5"/>
</linearGradient>
</defs>
</svg>
