<svg  viewBox="0 0 18 13" fill="none" xmlns="http://www.w3.org/2000/svg">
	<path d="M11.8779 4.57196L15.8053 2.6087C15.9368 2.543 16.0828 2.51198 16.2297 2.5186C16.3765 2.52521 16.5192 2.56923 16.6442 2.64648C16.7693 2.72374 16.8725 2.83166 16.9441 2.96001C17.0157 3.08836 17.0534 3.23288 17.0535 3.37986V9.21445C17.0534 9.36143 17.0157 9.50595 16.9441 9.6343C16.8725 9.76265 16.7693 9.87057 16.6442 9.94783C16.5192 10.0251 16.3765 10.0691 16.2297 10.0757C16.0828 10.0823 15.9368 10.0513 15.8053 9.98561L11.8779 8.02235V4.57196ZM3.25192 11.4727H10.1527C10.6102 11.4727 11.049 11.291 11.3726 10.9674C11.6961 10.6439 11.8779 10.2051 11.8779 9.74754V2.84677C11.8779 2.38922 11.6961 1.95041 11.3726 1.62688C11.049 1.30334 10.6102 1.12158 10.1527 1.12158H3.25192C2.79438 1.12158 2.35557 1.30334 2.03203 1.62688C1.70849 1.95041 1.52673 2.38922 1.52673 2.84677V9.74754C1.52673 10.2051 1.70849 10.6439 2.03203 10.9674C2.35557 11.291 2.79438 11.4727 3.25192 11.4727Z" fill="#A74FF2" stroke="#A74FF2" stroke-width="1.71904" stroke-linecap="round" stroke-linejoin="round"/>
</svg>